<?xml version="1.0" standalone="no"?>
<!DOCTYPE svg PUBLIC "-//W3C//DTD SVG 20010904//EN"
 "http://www.w3.org/TR/2001/REC-SVG-20010904/DTD/svg10.dtd">
<svg version="1.0" xmlns="http://www.w3.org/2000/svg"
 width="626.000000pt" height="626.000000pt" viewBox="0 0 626.000000 626.000000"
 preserveAspectRatio="xMidYMid meet">

<g transform="translate(0.000000,626.000000) scale(0.100000,-0.100000)"
fill="#000000" stroke="#000000">
<path d="M2040 5915 c0 -3 20 -30 45 -61 63 -77 106 -167 155 -324 23 -74 58
-184 77 -245 54 -173 124 -308 197 -380 115 -114 214 -139 367 -90 47 15 94
25 102 22 18 -7 61 -135 77 -229 11 -62 34 -613 34 -818 0 -94 -4 -117 -36
-215 -43 -132 -55 -190 -68 -355 -10 -122 -1 -414 19 -600 9 -78 6 -95 -10
-70 -78 124 -94 158 -125 260 -69 226 -161 463 -268 692 l-45 97 44 21 c55 27
75 67 75 153 0 184 -102 327 -308 435 -230 119 -506 192 -724 192 -109 0 -184
-16 -253 -54 -27 -15 -41 -24 -30 -21 47 16 180 17 223 2 141 -49 253 -157
420 -404 188 -278 293 -363 432 -350 30 3 61 7 68 8 15 4 165 -326 225 -496
44 -125 187 -569 187 -581 0 -6 -97 -15 -217 -22 -319 -17 -481 -49 -500 -99
-20 -53 80 -842 173 -1361 37 -206 47 -240 86 -287 18 -22 28 -51 37 -115 6
-47 19 -108 27 -137 13 -49 17 -52 62 -67 186 -61 735 -69 1022 -15 101 19
120 44 145 190 13 75 24 108 57 162 48 80 63 138 118 462 60 352 140 997 140
1132 0 45 -16 64 -70 82 -36 12 -287 36 -480 46 -63 3 -152 8 -197 11 l-83 6
0 111 c0 169 18 397 41 537 24 143 90 381 152 544 40 104 44 112 82 131 64 31
134 26 235 -19 79 -35 90 -38 166 -34 71 3 91 8 168 47 76 37 104 59 205 160
64 64 150 154 192 201 96 107 171 154 243 154 65 0 112 -25 213 -109 103 -87
125 -99 77 -40 -56 69 -179 172 -246 206 -193 98 -748 148 -971 88 -207 -56
-349 -264 -317 -465 l9 -57 -53 -53 c-110 -108 -178 -240 -232 -455 -20 -79
-40 -148 -44 -152 -14 -15 -21 344 -11 485 18 220 37 302 166 698 29 91 63
201 75 245 57 213 78 246 180 280 56 19 84 16 189 -16 37 -11 92 -19 135 -19
142 0 226 65 358 279 121 193 269 332 458 430 110 58 112 56 -55 87 -133 25
-402 26 -525 1 -328 -65 -599 -238 -698 -446 -34 -71 -35 -76 -32 -175 9 -252
18 -214 -170 -781 -44 -132 -83 -253 -87 -270 -4 -17 -10 65 -14 190 -7 200
-24 359 -48 441 -8 30 -8 31 42 48 178 64 249 326 143 535 -117 229 -608 500
-1071 590 -60 12 -120 24 -132 27 -13 2 -23 2 -23 -1z m290 -82 c209 -50 447
-157 655 -294 138 -92 214 -168 262 -267 34 -68 38 -85 41 -166 4 -103 -15
-171 -69 -246 -32 -44 -133 -101 -149 -84 -5 5 -32 65 -62 134 -79 184 -137
266 -397 555 -135 149 -231 236 -363 327 -49 33 -88 64 -88 69 0 10 34 5 170
-28z m-102 -53 c122 -83 244 -196 358 -330 54 -63 132 -153 173 -200 87 -100
172 -225 200 -298 27 -69 26 -80 -6 -88 -16 -3 -53 -15 -83 -26 -221 -82 -403
70 -523 438 -19 60 -56 175 -81 255 -28 88 -64 176 -91 224 -25 43 -45 80 -45
82 0 9 19 -2 98 -57z m2370 -39 c9 -5 -26 -16 -95 -30 -246 -51 -395 -102
-559 -192 -201 -111 -395 -290 -469 -432 -22 -42 -43 -77 -47 -77 -3 0 -9 29
-13 64 -21 193 90 371 317 511 114 71 257 121 428 150 84 15 418 19 438 6z
m102 -39 c0 -5 -19 -19 -42 -32 -150 -81 -329 -253 -447 -427 -99 -147 -161
-207 -240 -230 -59 -17 -82 -15 -261 18 -87 16 -148 6 -210 -36 -47 -32 -51
-33 -44 -12 3 12 25 58 47 102 117 225 453 460 799 556 171 48 398 83 398 61z
m-413 -1242 c169 -14 289 -35 393 -67 l85 -27 -88 -7 c-129 -11 -226 -33 -430
-98 -100 -32 -225 -67 -277 -76 -224 -41 -284 -66 -376 -157 -34 -33 -64 -56
-67 -51 -17 27 -18 114 -3 173 43 166 155 271 325 305 82 16 269 18 438 5z
m-2322 -124 c260 -63 490 -179 593 -297 75 -86 115 -218 93 -311 -19 -85 -70
-119 -92 -60 -33 91 -82 149 -281 329 -245 222 -340 287 -503 343 l-90 31 90
-6 c50 -2 135 -16 190 -29z m-192 -27 c92 -33 179 -80 265 -144 67 -49 311
-263 377 -331 52 -53 112 -141 121 -177 5 -24 2 -29 -30 -42 -57 -24 -134 -19
-196 12 -80 40 -155 123 -289 322 -129 191 -219 288 -324 352 -96 58 -70 61
76 8z m2817 19 c0 -6 -239 -257 -340 -358 -130 -129 -217 -180 -327 -187 -60
-5 -78 -1 -160 30 -117 46 -166 53 -222 33 -24 -9 -46 -16 -48 -16 -8 0 58
113 92 158 73 95 144 130 338 163 117 20 169 34 502 133 145 44 165 49 165 44z
m-1146 -529 c-120 -279 -193 -563 -214 -829 -16 -205 -47 -327 -71 -288 -12
18 -11 104 1 168 6 29 17 128 26 219 30 332 61 470 139 620 45 88 146 223 152
204 2 -5 -13 -48 -33 -94z m-364 -465 c-16 -281 0 -604 45 -856 21 -121 21
-128 -14 -128 -35 0 -36 2 -55 140 -42 300 -53 713 -23 875 19 105 46 199 54
191 3 -3 0 -103 -7 -222z m68 -237 c5 -61 -15 -197 -29 -197 -10 0 -12 139 -2
218 8 67 24 55 31 -21z m66 -610 c7 -129 6 -138 -10 -135 -28 5 -37 63 -25
160 11 81 20 123 26 116 1 -2 5 -65 9 -141z m-250 66 c14 -21 41 -75 60 -120
l35 -83 -29 0 c-26 0 -30 5 -49 63 -11 34 -25 81 -31 105 -6 24 -14 50 -17 58
-10 27 7 14 31 -23z m-357 -110 c11 -4 -29 -12 -97 -19 -134 -14 -212 -32
-189 -44 38 -22 546 -60 787 -60 149 1 861 36 869 43 10 11 -38 27 -111 39
-92 14 -102 33 -13 23 96 -10 163 -24 183 -40 18 -15 18 -16 -4 -34 -78 -67
-598 -109 -1112 -91 -392 14 -563 31 -652 67 -46 18 -50 46 -10 67 30 15 166
43 242 49 25 2 55 4 67 5 12 1 30 -1 40 -5z m1421 -230 c-50 -551 -161 -1276
-212 -1389 -43 -94 -84 -114 -290 -139 -368 -46 -872 -22 -1008 46 -48 25 -64
49 -82 129 -23 96 -111 636 -140 860 -27 196 -66 573 -62 578 2 1 32 -4 67
-12 98 -23 209 -34 518 -51 236 -14 326 -15 535 -6 278 13 488 34 598 60 40
10 75 16 79 15 3 -2 1 -42 -3 -91z m-304 -1642 c-23 -114 -37 -128 -144 -147
-198 -34 -704 -36 -895 -3 -68 11 -118 30 -129 48 -9 13 -39 212 -33 217 2 3
49 -4 103 -15 278 -57 782 -51 1054 12 52 12 55 12 59 -8 1 -11 -5 -58 -15
-104z"/>
</g>
</svg>
